<?xml version="1.0" encoding="utf-8"?>
<!-- Generator: Adobe Illustrator 19.1.0, SVG Export Plug-In . SVG Version: 6.00 Build 0)  -->
<svg version="1.1" id="Layer_1" xmlns="http://www.w3.org/2000/svg" xmlns:xlink="http://www.w3.org/1999/xlink" x="0px" y="0px"
	 viewBox="0 0 379.2 84.2" style="enable-background:new 0 0 379.2 84.2;" xml:space="preserve">
<style type="text/css">
	.st0{fill:#fff;}
	.st1{fill:#fff;stroke:#Fff;stroke-width:1.2;stroke-miterlimit:10;}
	.st2{fill:#fff;}
</style>
<path class="st0" d="M32.7,42.1c-8.1-1.3-10.7-1.9-10.7-4.8c0-2,1.5-4.5,8.4-4.5c4.5,0,8.7,0.9,11.8,2.6v-2.2c0-5.4-5-8.6-13.5-8.6
	c-8.5,0-17.6,4.3-17.6,13.7c0,5.8,3.2,8.8,10.3,9.8c8.3,1.2,10.7,2,10.7,5.1c0,4.5-5.9,4.5-8.2,4.5c-5.5,0-9.3-1.3-11.8-2.8v2
	c0,2.2,0,8.9,14.1,8.9c10.5,0,17-5.1,17-13.2C43.2,45.4,37.5,42.9,32.7,42.1z"/>
<path class="st0" d="M159.6,24.7c-13.9,0-21.6,7.9-21.6,22.2v21.9c0,6.1,2.2,8.7,7.4,8.7h3.9v-19c0,0,0.1,1.5,2.4,4.2
	c2.7,2.8,5.1,3.3,9.5,3.3c10.9,0,18.3-8.6,18.3-21.5C179.5,32.8,171.3,24.7,159.6,24.7z M160.4,56.1c-4.9,0-9.5-3.1-9.5-11.9
	c0-6.1,4-9.9,8-9.9c5.9,0,9.5,2.7,9.5,11.6C168.3,52.1,164.9,56.1,160.4,56.1z"/>
<path class="st0" d="M195.6,50.2V20.2c0-6.1-2.3-8.6-8-8.6h-3.7v40.7c0,9.6,6.6,13,12.9,13c2.4,0,8-0.5,8-5.3v-3.7H203
	C199.8,56.4,195.6,55.7,195.6,50.2z"/>
<path class="st0" d="M236.7,25.9H231c-1.1,7.9-4.1,18.5-7.2,24.7l-1.2,2.5l-1.1-2.6c-2.2-5.2-5.1-13.3-6.6-19.8
	c-0.7-3.2-4-4.9-6.8-4.9h-5.9c2,10.7,8.9,28,14.8,36.8l0.4,0.6L217,64c-1.8,4-4,5.6-8.1,6l-5,0.4v2.3c0,4.3,3.8,5.9,7.1,5.9
	c8.1,0,10.6-1.9,22-23.9c4.6-8.9,8.4-20.7,8.4-24.6C241.5,28.2,241,25.9,236.7,25.9z"/>
<path class="st1" d="M53,21c3.4,0,6.2-2.6,6.2-5.8c0-3.2-2.8-5.8-6.2-5.8c-3.4,0-6.2,2.6-6.2,5.8C46.8,18.4,49.6,21,53,21z"/>
<path class="st0" d="M89.2,34.7c4.6,0,7,2.8,7,8.2v14.8c0,5.3,1.9,7.1,7.6,7.1h3.7V43.1c0-6.9,3.6-8.4,6.7-8.4c5,0,7.3,2.7,7.3,8.6
	v14.4c0,4.6,1.3,7.1,8,7.1h3.7V43.5c0-12.1-6.4-18.8-17.9-18.8c-5.6,0-10.2,4.1-11.9,6.8l-1.4,2.2l-1-2.4c-1.1-2.7-5.4-6.6-11.5-6.6
	c-4.1,0-7.7,0.8-10.6,2.4c-5.4,2.9-8.2,8.5-8.2,16l0,6.1c0,3.8-1.8,5.7-5.6,6.1l-0.1,0l-0.1,0c-3.8-0.3-5.6-2.2-5.6-6.1V35.8
	c0-6.7-2-8.6-9.5-8.6h-2.2v24.1c0,3.6,0.9,6.4,2.6,8.3c2.5,2.7,7.8,5.7,14.7,5.7h0.3c1.9,0,3.6-0.3,5-0.6l0.3-0.1
	c3.4-0.8,5.4-2,6.5-2.9l0.3-0.2c1.4-1,5.1-4.8,5.2-10l0-8.3C82.5,40,83.3,34.7,89.2,34.7z"/>
<polygon class="st2" points="86.3,41.6 86.3,41.6 86.3,41.6 "/>
<g>
	<path class="st1" d="M260.2,49.8h-6.3c0.7,4.9,5.2,7.9,10.8,7.9c4,0,8.7-0.8,11.8-3.7h0.4v3c0,4.9-3.4,8.7-14,8.7
		c-9.6,0-19-7.6-19-19.4c0-12.9,7.9-21,18.9-21c8,0,15.5,5.7,15.5,15C278.3,47.6,273,49.8,260.2,49.8z M262,33.5
		c-4.7,0-7.9,3.8-8.1,8.2l-0.1,1.3h4.3c9.1,0,11.2-1,11.2-3.7C269.3,35.5,266.4,33.5,262,33.5z"/>
	<path class="st1" d="M298.3,65.9c-10.2,0-18-8.9-18-19.5c0-12.7,6.2-20.9,17.4-20.9c3.9,0,8.1,2.7,9.6,6.1V13.5h2.9
		c4.6,0,6.6,2.6,6.6,6.5v27.2C316.8,58.4,311.5,65.9,298.3,65.9z M297.8,33.6c-4.9,0-8,4.7-8,11c0,8,4.2,13.2,9.7,13.2
		c5.4,0,7.7-4,7.7-11C307.2,37.1,302.9,33.6,297.8,33.6z"/>
	<path class="st1" d="M328.5,23.7c-3.1,0-5.6-2.6-5.6-5.7c0-3.1,2.5-5.6,5.6-5.6c3.1,0,5.7,2.5,5.7,5.6
		C334.1,21.1,331.6,23.7,328.5,23.7z M335.3,65.4c-7.4,0-11.5-4.2-11.5-12c0-2.2,0-26.1,0-26.1h2.7c4.3,0,6.9,2.3,6.9,7.2v18
		c0,3.9,1.6,5.1,5.9,5.1h1.8v2.1C341,63.7,339.4,65.4,335.3,65.4z"/>
	<path class="st1" d="M345.9,20.3c1.3-1.5,3-2.6,4.5-2.6h2.2v8.7h13.4v3.9c0,2-1.8,4.6-5.7,4.6h-7.7V50c0,5,2.2,6.9,6.1,6.9
		c3.1,0,5.4-0.4,6.9-1.4h0.4V59c0,3.9-2.9,6.4-8.4,6.4c-9.7,0-14.5-5.3-14.5-14.3V27.9C343.2,24.2,343.9,22.7,345.9,20.3z"/>
</g>
</svg>
